<svg width="166" height="44" viewBox="0 0 166 44" fill="none" xmlns="http://www.w3.org/2000/svg">
<g clip-path="url(#clip0)">
<path d="M94.1482 36.3486L92.7939 43.6805H96.4901L96.6136 43.0015H93.7791L94.2716 40.1683H96.3049L96.4283 39.4905H94.3951L94.826 37.0264H97.5987L97.7222 36.3486H94.1482Z" fill="white"/>
<path fill-rule="evenodd" clip-rule="evenodd" d="M99.4469 37.8271L98.4 43.68H99.0777L100.001 38.5666L100.926 43.68H101.665L102.712 37.8271H102.034L101.295 42.1393H101.233L100.433 37.8271H99.4469Z" fill="white"/>
<path d="M104.622 37.8271L103.513 43.68H106.47L106.594 43.1244H104.315L104.745 40.9072H106.347L106.408 40.3529H104.807L105.176 38.3814H107.333L107.457 37.8271H104.622Z" fill="white"/>
<path fill-rule="evenodd" clip-rule="evenodd" d="M110.475 38.3814C111.398 38.3814 111.645 38.7505 111.522 39.3665C111.398 39.9221 111.153 40.2295 110.475 40.3529V42.3245L110.721 43.68H111.46L110.906 40.7838C111.645 40.5381 112.076 39.9826 112.2 39.3665C112.385 38.3814 111.769 37.8271 110.721 37.8271H110.475V38.3814ZM109.797 38.3814H110.475V37.8271H109.243L108.195 43.68H108.873L109.366 40.9072H110.228L110.475 42.3245V40.3529C110.351 40.3529 110.228 40.3529 110.043 40.3529H109.427L109.797 38.3814Z" fill="white"/>
<path fill-rule="evenodd" clip-rule="evenodd" d="M117.313 39.6136C117.375 38.6902 117.128 37.7656 116.019 37.7656C114.911 37.7656 114.048 38.5668 113.679 40.7222C113.248 42.9407 113.802 43.7419 114.911 43.7419C115.403 43.7419 115.834 43.5567 116.143 43.2481V43.6802H116.573L117.067 40.9074H115.527L115.465 41.4617H116.328L116.143 42.2629C116.019 42.879 115.65 43.1864 115.034 43.1864C114.233 43.1864 113.986 42.5703 114.356 40.7222C114.664 38.9359 115.158 38.2581 115.896 38.2581C116.574 38.2581 116.697 38.8742 116.635 39.6136H117.313Z" fill="white"/>
<path d="M119.531 37.8271L118.483 43.68H119.161L120.208 37.8271H119.531Z" fill="white"/>
<path fill-rule="evenodd" clip-rule="evenodd" d="M123.473 38.2579H123.535L123.597 41.3998H122.919V41.9541H123.597L123.658 43.68H124.336L124.029 37.8271H123.104L122.919 38.2579V39.6752L123.473 38.2579ZM122.919 41.3998H122.241L122.919 39.6752V38.2579L120.702 43.68H121.318L122.057 41.9541H122.919V41.3998Z" fill="white"/>
<path d="M130.004 36.3486L128.648 43.6805H132.346L132.468 43.0015H129.635L130.127 40.1683H132.161L132.284 39.4905H130.251L130.743 37.0264H133.454L133.578 36.3486H130.004Z" fill="white"/>
<path d="M135.426 37.8271L134.317 43.68H137.027L137.151 43.1244H135.117L136.104 37.8271H135.426Z" fill="white"/>
<path fill-rule="evenodd" clip-rule="evenodd" d="M142.264 36.4102H141.586L140.539 37.5188H140.97L142.264 36.4102ZM139.553 37.8274L138.506 43.6803H141.463L141.586 43.1247H139.307L139.676 40.9075H141.278L141.401 40.3532H139.8L140.169 38.3817H142.326L142.449 37.8274H139.553Z" fill="white"/>
<path d="M143.681 37.8271L143.619 38.3814H144.913L143.927 43.68H144.605L145.591 38.3814H146.823L146.945 37.8271H143.681Z" fill="white"/>
<path fill-rule="evenodd" clip-rule="evenodd" d="M149.656 38.3814C150.519 38.3814 150.765 38.7505 150.643 39.3665C150.519 39.9221 150.272 40.2295 149.656 40.3529V42.3245L149.903 43.68H150.581L150.088 40.7838C150.765 40.5381 151.197 39.9826 151.32 39.3665C151.504 38.3814 150.888 37.8271 149.903 37.8271H149.656V38.3814ZM148.978 38.3814H149.533C149.594 38.3814 149.595 38.3814 149.656 38.3814V37.8271H148.364L147.316 43.68H147.993L148.486 40.9072H149.411L149.656 42.3245V40.3529C149.472 40.3529 149.349 40.3529 149.164 40.3529H148.609L148.978 38.3814Z" fill="white"/>
<path d="M153.599 37.8271L152.491 43.68H153.168L154.215 37.8271H153.599Z" fill="white"/>
<path d="M159.144 39.6136C159.267 38.3199 158.836 37.7656 157.912 37.7656C156.803 37.7656 155.94 38.5668 155.509 40.7222C155.14 42.9407 155.694 43.7419 156.803 43.7419C157.85 43.7419 158.589 43.0012 158.836 41.7086H158.158C157.973 42.8172 157.542 43.1864 156.865 43.1864C156.125 43.1864 155.88 42.5703 156.187 40.7222C156.556 38.9359 156.988 38.2581 157.788 38.2581C158.344 38.2581 158.589 38.6902 158.466 39.6136H159.144Z" fill="white"/>
<path fill-rule="evenodd" clip-rule="evenodd" d="M162.656 38.2579L162.778 41.3998H162.04V41.9541H162.778L162.841 43.68H163.519L163.21 37.8271H162.225L162.04 38.2579V39.6752L162.656 38.2579ZM162.04 41.3998H161.362L162.04 39.6752V38.2579L159.821 43.68H160.499L161.177 41.9541H162.04V41.3998Z" fill="white"/>
<path fill-rule="evenodd" clip-rule="evenodd" d="M6.42041 36.902L6.60562 40.7834H5.68093V41.4612H6.60562L6.66733 43.6179H7.46852L7.09818 36.3477H5.92785L5.68093 36.902V38.6279L6.42041 36.902ZM5.68093 40.7834H4.81923L5.68093 38.6279V36.902L2.90942 43.6179H3.71062L4.57231 41.4612H5.68093V40.7834Z" fill="white"/>
<path fill-rule="evenodd" clip-rule="evenodd" d="M13.1363 39.6129C13.2597 38.6895 13.0128 37.7031 11.8425 37.7031C10.7339 37.7031 9.93268 38.5043 9.50183 40.7215C9.13147 42.94 9.68575 43.7412 10.7339 43.7412C11.2882 43.7412 11.6573 43.4943 11.9659 43.1857V43.6177H12.3968L12.9511 40.9067H11.4104L11.2882 41.461H12.1499L12.0264 42.2622C11.9042 42.8783 11.4721 43.1857 10.8561 43.1857C10.1166 43.1857 9.87092 42.5696 10.1783 40.7215C10.5487 38.8735 10.9796 38.2574 11.7808 38.2574C12.4586 38.2574 12.5819 38.8117 12.4585 39.6129H13.1363Z" fill="white"/>
<path fill-rule="evenodd" clip-rule="evenodd" d="M15.6621 37.5188H16.1547L16.9559 36.6571L17.3867 37.5188H17.9411L17.325 36.4102H16.709L15.6621 37.5188ZM15.3535 37.8274L14.2449 43.6186H17.2016L17.325 43.1248H15.0461L15.4769 40.8458H17.0794L17.1398 40.3532H15.5386L15.9078 38.32H18.0645L18.1879 37.8274H15.3535Z" fill="white"/>
<path fill-rule="evenodd" clip-rule="evenodd" d="M19.9126 37.8271L18.804 43.6183H19.4818L20.4052 38.5667H20.4669L21.4533 43.6183H22.1928L23.2397 37.8271H22.5619L21.7607 42.0776L20.9607 37.8271H19.9126Z" fill="white"/>
<path d="M27.984 39.5512C28.1062 38.3192 27.6753 37.7031 26.7506 37.7031C25.642 37.7031 24.7803 38.5043 24.41 40.7215C23.9791 42.94 24.5334 43.7412 25.642 43.7412C26.6889 43.7412 27.4284 43.0005 27.6753 41.7079H26.9976C26.8124 42.7548 26.3815 43.1857 25.7654 43.1857C24.9642 43.1857 24.7174 42.5091 25.0877 40.7215C25.3951 38.9352 25.8272 38.2574 26.6284 38.2574C27.1827 38.2574 27.4284 38.6278 27.3062 39.5512H27.984Z" fill="white"/>
<path d="M30.2627 37.8271L29.2159 43.6183H29.8937L30.9405 37.8271H30.2627Z" fill="white"/>
<path fill-rule="evenodd" clip-rule="evenodd" d="M34.206 38.258L34.3294 41.3998H33.6517V41.8924H34.3294L34.39 43.6183H35.0677L34.7603 37.8271H33.8357L33.6517 38.258V39.6135L34.206 38.258ZM33.6517 41.3998H32.9122L33.6517 39.6135V38.258L31.3715 43.6183H32.0493L32.7271 41.8924H33.6517V41.3998Z" fill="white"/>
<path fill-rule="evenodd" clip-rule="evenodd" d="M40.5514 36.3477L39.2576 43.6179H40.0576L41.2291 37.2724L42.5229 43.6179H43.4463L44.7401 36.3477H43.9402L42.9538 41.7081H42.892L41.9069 36.3477H40.5514Z" fill="white"/>
<path fill-rule="evenodd" clip-rule="evenodd" d="M47.9438 38.258L48.0672 41.3998H47.3278V41.8924H48.0672L48.129 43.6183H48.8067L48.4981 37.8271H47.5747L47.3278 38.258V39.6135L47.9438 38.258ZM47.3278 41.3998H46.6501L47.3278 39.6135V38.258L45.1093 43.6183H45.7871L46.4649 41.8924H47.3278V41.3998Z" fill="white"/>
<path d="M54.2275 39.5512C54.3509 38.3192 53.8583 37.7031 52.9337 37.7031C51.8251 37.7031 51.0238 38.5043 50.5929 40.7215C50.1621 42.94 50.7164 43.7412 51.825 43.7412C52.9337 43.7412 53.6732 43.0005 53.9201 41.7079H53.2422C52.9953 42.7548 52.5646 43.1857 51.9485 43.1857C51.1473 43.1857 50.9004 42.5091 51.2708 40.7215C51.5782 38.9352 52.072 38.2574 52.872 38.2574C53.3645 38.2574 53.6114 38.6278 53.5497 39.5512H54.2275Z" fill="white"/>
<path d="M56.4459 37.8271L55.399 43.6183H56.0756L57.1236 37.8271H56.4459Z" fill="white"/>
<path fill-rule="evenodd" clip-rule="evenodd" d="M61.2507 40.7215C61.005 42.2005 60.6347 42.8165 60.2038 43.0634V43.6177C61.005 43.3708 61.621 42.5091 61.9284 40.7215C62.3593 38.5661 61.805 37.7031 60.7581 37.7031C60.5729 37.7031 60.3878 37.7649 60.2038 37.8266V38.3809C60.3273 38.3192 60.5112 38.2574 60.6347 38.2574C61.2507 38.2574 61.621 38.75 61.2507 40.7215ZM60.2038 43.0634C60.0187 43.1239 59.8952 43.1857 59.71 43.1857C59.1557 43.1857 58.7249 42.6931 59.0952 40.7215C59.3409 39.2438 59.773 38.6278 60.2038 38.3809V37.8266C59.4026 38.0723 58.7248 38.9352 58.4174 40.7215C58.0471 42.8783 58.6014 43.7412 59.6495 43.7412C59.8334 43.7412 60.0187 43.6795 60.2038 43.6177V43.0634Z" fill="white"/>
<path fill-rule="evenodd" clip-rule="evenodd" d="M64.1469 37.8271L63.0988 43.6183H63.7766L64.7012 38.5667L65.7481 43.6183H66.4258L67.5345 37.8271H66.8567L66.0568 42.0776L65.1939 37.8271H64.1469Z" fill="white"/>
<path fill-rule="evenodd" clip-rule="evenodd" d="M70.6146 38.258L70.738 41.3998H70.0602V41.8924H70.738L70.7997 43.6183H71.4775L71.1688 37.8271H70.2454L70.0602 38.258V39.6135L70.6146 38.258ZM70.0602 41.3998H69.3825L70.0602 39.6135V38.258L67.7814 43.6183H68.459L69.1985 41.8924H70.0602V41.3998Z" fill="white"/>
<path d="M74.0033 37.8271L72.9564 43.6183H75.6057L75.7279 43.1245H73.6959L74.6811 37.8271H74.0033Z" fill="white"/>
<path fill-rule="evenodd" clip-rule="evenodd" d="M81.8278 38.3197C82.8129 38.3197 83.3067 38.7505 82.9363 40.7221C82.6894 42.0776 82.3203 42.6936 81.8278 42.9405V43.4949C82.6895 43.248 83.3067 42.4467 83.6141 40.7221C83.6758 40.2912 83.6758 39.9221 83.7376 39.6135V39.49C83.6758 38.258 83.0598 37.8271 82.0117 37.8271H81.8278V38.3197ZM81.4573 38.3197H81.8278V37.8271H80.8414L79.7944 43.6183H80.9648C81.2734 43.6183 81.5191 43.6184 81.8278 43.4949V42.9405C81.5191 43.064 81.2734 43.1245 80.9031 43.1245H80.5339L81.4573 38.3197Z" fill="white"/>
<path d="M85.9561 37.8271L84.908 43.6183H87.8647L87.9881 43.1245H85.7092L86.0783 40.8456H87.6795L87.8029 40.3529H86.2018L86.5709 38.3197H88.7276L88.851 37.8271H85.9561Z" fill="white"/>
<path d="M42.9538 5.85288L44.0007 0C44.1241 0 45.9722 0 46.1573 0C54.1657 0 59.526 6.53063 58.1088 14.539C56.6916 22.6103 49.0523 29.1397 40.9823 29.1397C40.6749 29.1397 38.8872 29.0793 38.8872 29.0793L39.8736 23.2881H30.6937L31.7406 17.4969H40.9205L41.9674 11.6441H32.7887L33.7738 5.85288H42.9538Z" fill="white"/>
<path fill-rule="evenodd" clip-rule="evenodd" d="M12.2117 29.0792C3.03299 29.0792 -0.971831 21.2548 0.198499 14.539C1.43056 7.45407 7.65254 0 17.3251 0H28.1679L27.1827 5.85288H18.0028L16.9559 11.644H26.1346L25.0878 17.4969H15.9078L14.9227 23.288H24.1026L23.0545 29.0792H12.1499H12.2117Z" fill="white"/>
<path fill-rule="evenodd" clip-rule="evenodd" d="M78.439 6.28372H78.5624L79.1785 18.0512H76.4057V22.9795H79.4871L79.7945 29.1397H85.093L83.2449 0H76.4057V11.3354L78.439 6.28372ZM76.4057 18.0512H73.6342L76.4057 11.3354V0H76.0983L63.7765 29.1397H69.1368L71.7861 22.9795H76.4057V18.0512Z" fill="white"/>
<path d="M92.6705 29.1397L95.9976 10.3503H96.0581L101.233 29.1397H106.532L111.645 0H106.594L103.575 17.25H103.452L98.8308 0H92.7323L87.6189 29.1397H92.6705Z" fill="white"/>
<path d="M126.616 29.1397L127.54 24.2115H117.436L118.792 16.5106H126.184L127.047 11.6441H119.654L120.825 4.92945H130.496L131.359 0H116.143L110.967 29.1397H126.616Z" fill="white"/>
<path d="M146.391 29.1397L147.254 24.2115H137.151L138.506 16.5106H145.898L146.761 11.6441H139.368L140.539 4.92945H150.272L151.135 0H135.857L130.743 29.1397H146.391Z" fill="white"/>
<path d="M164.75 29.1397L165.612 24.2115H156.679L160.931 0H155.386L150.211 29.1397H164.75Z" fill="white"/>
</g>
<defs>
<clipPath id="clip0">
<rect width="166" height="44" fill="white"/>
</clipPath>
</defs>
</svg>
