<svg width="32" height="32" viewBox="0 0 32 32" fill="none" xmlns="http://www.w3.org/2000/svg">
<path fill-rule="evenodd" clip-rule="evenodd" d="M16 0C7.16344 0 0 7.16344 0 16C0 24.8366 7.16344 32 16 32C24.8366 32 32 24.8366 32 16C32 7.16344 24.8366 0 16 0ZM14.0405 8.62627C13.6499 8.23574 13.0168 8.23574 12.6262 8.62627C12.2357 9.01679 12.2357 9.64996 12.6262 10.0405L18.5858 16L12.6262 21.9596C12.2357 22.3501 12.2357 22.9833 12.6262 23.3738C13.0168 23.7643 13.6499 23.7643 14.0405 23.3738L20.7071 16.7071C20.8947 16.5196 21 16.2653 21 16C21 15.7348 20.8947 15.4805 20.7071 15.2929L14.0405 8.62627Z" fill="#6DE969"/>
</svg>
