<svg width="32" height="33" viewBox="0 0 32 33" fill="none" xmlns="http://www.w3.org/2000/svg">
<path fill-rule="evenodd" clip-rule="evenodd" d="M16 0.5C7.16344 0.5 0 7.66344 0 16.5C0 25.3366 7.16344 32.5 16 32.5C24.8366 32.5 32 25.3366 32 16.5C32 7.66344 24.8366 0.5 16 0.5ZM14.0404 9.12623C13.6499 8.7357 13.0168 8.7357 12.6262 9.12623C12.2357 9.51675 12.2357 10.1499 12.6262 10.5404L18.5858 16.5L12.6262 22.4596C12.2357 22.8501 12.2357 23.4832 12.6262 23.8738C13.0168 24.2643 13.6499 24.2643 14.0404 23.8738L20.7071 17.2071C20.8946 17.0196 21 16.7652 21 16.5C21 16.2348 20.8946 15.9804 20.7071 15.7929L14.0404 9.12623Z" fill="white"/>
</svg>
