<svg width="724" height="508" viewBox="0 0 724 508" fill="none" xmlns="http://www.w3.org/2000/svg">
<path d="M0 259.938V310.172L336.485 507.119L724 228.841V178.608L0 259.938Z" fill="#99C897"/>
<path d="M336.485 507.119L724 228.841V178.608L336.485 456.886V507.119Z" fill="#79A477"/>
<path d="M406.652 0L0 259.938L336.485 456.885L724 178.608L406.652 0Z" fill="#B8DBB6"/>
<ellipse cx="154.786" cy="242.947" rx="13.5508" ry="6.7754" fill="#D7D9DD"/>
<path d="M145.752 223.75H163.82V242.947L154.786 248.028L145.752 242.947V223.75Z" fill="#504132"/>
<path d="M154.786 223.75H163.82V242.947L154.786 248.028V223.75Z" fill="#332920"/>
<path d="M190.921 218.668L154.786 162.771L118.086 218.668L154.786 233.913L190.921 218.668Z" fill="#B8DBB6"/>
<path d="M190.921 218.668L154.786 162.771V233.913L190.921 218.668Z" fill="#A7C5A6"/>
<path d="M190.921 201.73L154.786 145.833L118.086 201.73L154.786 216.975L190.921 201.73Z" fill="#99C897"/>
<path d="M190.921 201.73L154.786 145.833V216.975L190.921 201.73Z" fill="#87B086"/>
<path d="M190.921 183.662L154.786 127.765L118.086 183.662L154.786 198.906L190.921 183.662Z" fill="#79A477"/>
<path d="M190.921 183.662L154.786 127.765V198.906L190.921 183.662Z" fill="#5B7D5A"/>
<ellipse cx="510.979" cy="283.599" rx="13.5508" ry="6.7754" fill="#D7D9DD"/>
<path d="M501.945 264.402H520.012V283.599L510.979 288.681L501.945 283.599V264.402Z" fill="#504132"/>
<path d="M510.979 264.402H520.012V283.599L510.979 288.681V264.402Z" fill="#332920"/>
<path d="M547.114 259.321L510.979 203.424L474.278 259.321L510.979 274.565L547.114 259.321Z" fill="#B8DBB6"/>
<path d="M547.114 259.321L510.979 203.424V274.565L547.114 259.321Z" fill="#A7C5A6"/>
<path d="M547.114 242.382L510.979 186.485L474.278 242.382L510.979 257.627L547.114 242.382Z" fill="#99C897"/>
<path d="M547.114 242.382L510.979 186.485V257.627L547.114 242.382Z" fill="#87B086"/>
<path d="M547.114 224.315L510.979 168.418L474.278 224.315L510.979 239.559L547.114 224.315Z" fill="#79A477"/>
<path d="M547.114 224.315L510.979 168.418V239.559L547.114 224.315Z" fill="#5B7D5A"/>
<ellipse cx="530.337" cy="175.193" rx="13.5508" ry="6.7754" fill="#D7D9DD"/>
<path d="M521.303 155.996H539.37V175.193L530.336 180.274L521.303 175.193V155.996Z" fill="#504132"/>
<path d="M530.337 155.996H539.37V175.193L530.337 180.274V155.996Z" fill="#332920"/>
<path d="M566.472 150.914L530.337 95.0172L493.636 150.914L530.337 166.159L566.472 150.914Z" fill="#B8DBB6"/>
<path d="M566.472 150.914L530.337 95.0172V166.159L566.472 150.914Z" fill="#A7C5A6"/>
<path d="M566.472 133.976L530.337 78.0786L493.636 133.976L530.337 149.22L566.472 133.976Z" fill="#99C897"/>
<path d="M566.472 133.976L530.337 78.0786V149.22L566.472 133.976Z" fill="#87B086"/>
<path d="M566.472 115.908L530.337 60.011L493.636 115.908L530.337 131.153L566.472 115.908Z" fill="#79A477"/>
<path d="M566.472 115.908L530.337 60.011V131.153L566.472 115.908Z" fill="#5B7D5A"/>
<ellipse cx="239.962" cy="351.353" rx="13.5508" ry="6.7754" fill="#D7D9DD"/>
<path d="M230.928 332.157H248.996V351.354L239.962 356.435L230.928 351.354V332.157Z" fill="#504132"/>
<path d="M239.962 332.157H248.996V351.354L239.962 356.435V332.157Z" fill="#332920"/>
<path d="M276.098 327.075L239.962 271.178L203.262 327.075L239.962 342.319L276.098 327.075Z" fill="#B8DBB6"/>
<path d="M276.098 327.075L239.962 271.178V342.319L276.098 327.075Z" fill="#A7C5A6"/>
<path d="M276.098 310.136L239.962 254.239L203.262 310.136L239.962 325.381L276.098 310.136Z" fill="#99C897"/>
<path d="M276.098 310.136L239.962 254.239V325.381L276.098 310.136Z" fill="#87B086"/>
<path d="M276.098 292.069L239.962 236.172L203.262 292.069L239.962 307.313L276.098 292.069Z" fill="#79A477"/>
<path d="M276.098 292.069L239.962 236.172V307.313L276.098 292.069Z" fill="#5B7D5A"/>
</svg>
