<svg width="51" height="55" viewBox="0 0 51 55" fill="none" xmlns="http://www.w3.org/2000/svg">
<path fill-rule="evenodd" clip-rule="evenodd" d="M25.1068 5.1357C30.4173 5.12598 35.5929 6.79635 39.883 9.90456C38.9531 10.4991 38.0614 11.1063 37.208 11.7387C33.6135 9.39614 29.4062 8.15154 25.1068 8.15893C22.9281 8.15836 20.761 8.47371 18.6741 9.09499C18.19 8.20952 17.6677 7.32406 17.1073 6.42594C19.6876 5.5784 22.389 5.15123 25.1068 5.161V5.1357ZM46.6469 17.2413C48.9577 21.0584 50.1966 25.4205 50.2349 29.8741C50.2732 34.3277 49.1094 38.7102 46.8646 42.5659C44.6198 46.4216 41.376 49.6099 37.4702 51.7991C33.5645 53.9883 29.1395 55.0987 24.6554 55.0147C20.1712 54.9306 15.7916 53.6553 11.9718 51.3213C8.15204 48.9874 5.03157 45.6799 2.93484 41.7428C0.838111 37.8057 -0.158333 33.3828 0.0491064 28.9338C0.256546 24.4848 1.6603 20.1722 4.11441 16.4443C4.39465 17.7093 4.75132 19.164 5.20989 20.644C3.62058 23.9329 2.88292 27.5637 3.06378 31.2073C3.24463 34.8509 4.33829 38.392 6.24561 41.5098C8.15293 44.6276 10.8136 47.2234 13.9865 49.0619C17.1594 50.9005 20.7442 51.9236 24.4159 52.0387C28.0876 52.1538 31.7302 51.3571 35.0135 49.7208C38.2968 48.0846 41.117 45.6605 43.2185 42.6684C45.32 39.6762 46.6363 36.2106 47.0481 32.5856C47.4599 28.9606 46.9542 25.2908 45.5769 21.9089C46.0125 20.4994 46.3529 19.0626 46.596 17.6081L46.6469 17.2413Z" fill="#252669"/>
<path fill-rule="evenodd" clip-rule="evenodd" d="M8.27975 0.189742L9.0313 0.974011C16.0715 8.29419 20.3545 17.8013 21.158 27.8921C21.5144 31.6486 21.2867 35.4372 20.4828 39.1249C20.4828 39.3905 20.0625 40.9085 18.6103 39.049C9.43892 27.285 6.91678 17.3551 6.36904 11.0936C5.97024 7.68777 6.31343 4.2366 7.37535 0.974011L7.73202 0.164443C7.83392 -0.0632479 8.06321 -0.0505984 8.27975 0.164443V0.189742ZM43.2203 11.3845L42.3032 11.9538C33.5989 17.2178 26.9863 25.2988 23.5782 34.8367C22.2495 38.3746 21.4803 42.0955 21.2981 45.8671C21.2981 46.1327 21.2981 47.7012 23.1324 46.2718C35.0552 37.2781 40.074 28.3222 42.2395 22.4023C43.5103 19.2063 44.0792 15.7778 43.9082 12.3459L43.8063 11.511C43.7299 11.258 43.5006 11.2075 43.2203 11.3845Z" fill="#4ECB4A"/>
</svg>
