<svg width="214" height="55" viewBox="0 0 214 55" fill="none" xmlns="http://www.w3.org/2000/svg">
<g clip-path="url(#clip0)">
<path fill-rule="evenodd" clip-rule="evenodd" d="M75.9191 10.1955H90.9245V1.94802H65.2827V42.0216H92.5932L93.5741 33.5971H75.9191V25.2231H89.396V17.4057H75.9191V10.1955ZM95.5357 0V42.0216H105.726V34.6976L107.943 31.94L115.076 42.0596H127.075L115.101 26.2604L125.801 14.6608L114.643 13.2567L105.726 23.0853V0H95.5357ZM128.324 22.6046V15.7613C132.099 13.8529 136.265 12.8275 140.501 12.7633C145.112 12.7633 148.679 14.0283 150.832 16.4317C152.309 18.1394 152.985 20.644 152.985 24.3756V31.0925C152.985 35.7348 153.418 36.342 156.551 36.342L155.277 42.262C153.502 42.7858 151.648 42.9956 149.8 42.8818C146.781 42.692 144.998 41.6168 144.017 39.2767C140.323 42.0849 138.119 42.9324 134.603 42.9324C133.476 42.9641 132.353 42.7626 131.308 42.3407C130.263 41.9189 129.317 41.2858 128.532 40.4817C127.746 39.6776 127.137 38.7201 126.744 37.6699C126.351 36.6198 126.181 35.4999 126.247 34.3813C126.247 29.1318 129.814 25.8935 136.642 24.8563C138.719 24.5594 140.811 24.3778 142.909 24.3123C142.794 21.0741 140.947 19.67 137.011 19.9736C133.944 20.228 130.966 21.1247 128.273 22.6046H128.324ZM143.023 35.115V28.7902C137.801 29.5239 135.763 30.7509 135.584 33.3061C135.532 33.765 135.586 34.2295 135.741 34.6647C135.896 35.1 136.149 35.4945 136.48 35.8185C136.812 36.1426 137.213 36.3877 137.653 36.5353C138.094 36.683 138.562 36.7293 139.024 36.6709C140.475 36.5001 141.855 35.9502 143.023 35.077V35.115ZM177.964 13.7374H169.595L169.773 5.0598H164.678C163.15 11.6502 160.373 14.1548 154.105 14.7114V21.0361H159.583V31.6237C159.583 35.2288 159.825 36.6835 160.691 38.4039C162.041 41.1488 165.239 42.7426 169.417 42.7426C173.179 42.853 176.9 41.9434 180.18 40.1115L178.588 33.635C177.008 34.2217 175.344 34.5548 173.658 34.6217C170.525 34.6217 169.544 33.3567 169.544 29.3595V21.0108H177.913V13.7374H177.964ZM210.433 13.7374H200.166V31.94C198.434 33.6477 197.39 34.2042 195.797 34.2675C193.148 34.3813 191.798 32.7369 191.798 29.3215V13.7374H181.531V30.8395C181.531 34.7482 181.836 36.8353 182.804 38.4292C183.684 39.7792 184.887 40.8922 186.305 41.669C187.723 42.4459 189.312 42.8625 190.931 42.8818C192.887 43.0318 194.849 42.6843 196.632 41.872C198.415 41.0597 199.961 39.8095 201.122 38.2394C202.396 41.4144 203.95 42.6414 207.338 42.8312C209.181 42.9166 211.026 42.7074 212.803 42.2114L214.076 36.2914C210.943 36.2914 210.51 35.6842 210.51 31.0419L210.433 13.7374Z" fill="#4ECB4A"/>
<path fill-rule="evenodd" clip-rule="evenodd" d="M25.1068 5.1357C30.4173 5.12598 35.5929 6.79635 39.883 9.90456C38.9531 10.4991 38.0614 11.1063 37.208 11.7387C33.6135 9.39614 29.4062 8.15154 25.1068 8.15893C22.9281 8.15836 20.761 8.47371 18.6741 9.09499C18.19 8.20952 17.6677 7.32406 17.1073 6.42594C19.6876 5.5784 22.389 5.15123 25.1068 5.161V5.1357ZM46.6469 17.2413C48.9577 21.0584 50.1966 25.4205 50.2349 29.8741C50.2732 34.3277 49.1094 38.7102 46.8646 42.5659C44.6198 46.4216 41.376 49.6099 37.4702 51.7991C33.5645 53.9883 29.1395 55.0987 24.6554 55.0147C20.1712 54.9306 15.7916 53.6553 11.9718 51.3213C8.15204 48.9874 5.03157 45.6799 2.93484 41.7428C0.838111 37.8057 -0.158333 33.3828 0.0491064 28.9338C0.256546 24.4848 1.6603 20.1722 4.11441 16.4443C4.39465 17.7093 4.75132 19.164 5.20989 20.644C3.62058 23.9329 2.88292 27.5637 3.06378 31.2073C3.24463 34.8509 4.33829 38.392 6.24561 41.5098C8.15293 44.6276 10.8136 47.2234 13.9865 49.0619C17.1594 50.9005 20.7442 51.9236 24.4159 52.0387C28.0876 52.1538 31.7302 51.3571 35.0135 49.7208C38.2968 48.0846 41.117 45.6605 43.2185 42.6684C45.32 39.6762 46.6363 36.2106 47.0481 32.5856C47.4599 28.9606 46.9542 25.2908 45.5769 21.9089C46.0125 20.4994 46.3529 19.0626 46.596 17.6081L46.6469 17.2413Z" fill="#252669"/>
<path fill-rule="evenodd" clip-rule="evenodd" d="M8.27975 0.189742L9.0313 0.974011C16.0715 8.29419 20.3545 17.8013 21.158 27.8921C21.5144 31.6486 21.2867 35.4372 20.4828 39.1249C20.4828 39.3905 20.0625 40.9085 18.6103 39.049C9.43892 27.285 6.91678 17.3551 6.36904 11.0936C5.97024 7.68777 6.31343 4.2366 7.37535 0.974011L7.73202 0.164443C7.83392 -0.0632479 8.06321 -0.0505985 8.27975 0.164443V0.189742ZM43.2203 11.3845L42.3032 11.9538C33.5989 17.2178 26.9863 25.2988 23.5782 34.8367C22.2495 38.3746 21.4803 42.0955 21.2981 45.8671C21.2981 46.1327 21.2981 47.7012 23.1324 46.2718C35.0552 37.2781 40.074 28.3222 42.2395 22.4023C43.5103 19.2063 44.0792 15.7778 43.9082 12.3459L43.8063 11.511C43.7299 11.258 43.5006 11.2075 43.2203 11.3845Z" fill="#4ECB4A"/>
<path fill-rule="evenodd" clip-rule="evenodd" d="M66.047 54.0639C66.9387 54.0639 67.5756 53.5959 67.5756 52.799C67.5756 52.0906 67.1043 51.7744 66.1999 51.534C65.2955 51.2937 65.1936 51.1925 65.1936 50.8636C65.1936 50.5853 65.4483 50.3576 65.8814 50.3576C66.3069 50.3719 66.7151 50.5279 67.0406 50.8004L67.4482 50.2311C67.0095 49.8775 66.4591 49.6894 65.8942 49.6999C65.7126 49.6744 65.5276 49.6881 65.3518 49.7401C65.176 49.7922 65.0137 49.8813 64.8758 50.0014C64.7379 50.1215 64.6278 50.2698 64.5529 50.436C64.478 50.6023 64.4402 50.7827 64.442 50.9648C64.442 51.7491 64.9515 52.0147 65.856 52.2298C66.7604 52.4448 66.824 52.5713 66.824 52.8749C66.824 53.2038 66.5311 53.4062 66.0725 53.4062C65.5683 53.4064 65.0839 53.2112 64.7223 52.8622L64.2764 53.3935C64.7579 53.8348 65.392 54.0749 66.047 54.0639ZM71.2824 54.0639C71.5755 54.069 71.8666 54.0157 72.1385 53.907C72.4105 53.7984 72.6577 53.6367 72.8655 53.4314C73.0734 53.2262 73.2377 52.9816 73.3486 52.7122C73.4596 52.4428 73.515 52.154 73.5115 51.8629C73.5132 51.5784 73.4581 51.2964 73.3492 51.0332C73.2403 50.77 73.0799 50.5309 72.8773 50.3297C72.6747 50.1285 72.4339 49.9692 72.1689 49.8611C71.9039 49.753 71.6199 49.6982 71.3333 49.6999C71.0393 49.688 70.7458 49.735 70.4705 49.8382C70.1951 49.9414 69.9435 50.0987 69.7307 50.3006C69.5179 50.5024 69.3482 50.7448 69.2318 51.0133C69.1154 51.2817 69.0547 51.5707 69.0532 51.8629C69.044 52.1604 69.097 52.4566 69.209 52.7327C69.321 53.0088 69.4895 53.2588 69.7038 53.4669C69.9182 53.675 70.1737 53.8366 70.4542 53.9416C70.7346 54.0465 71.034 54.0925 71.3333 54.0766L71.2824 54.0639ZM71.2824 53.3809C71.0862 53.3794 70.8923 53.3385 70.7124 53.2606C70.5325 53.1826 70.3704 53.0693 70.2359 52.9275C70.1014 52.7856 69.9972 52.6181 69.9297 52.4351C69.8621 52.2522 69.8326 52.0575 69.843 51.8629C69.8359 51.6667 69.8695 51.4711 69.9419 51.2883C70.0143 51.1055 70.1238 50.9395 70.2636 50.8007C70.4035 50.6618 70.5706 50.553 70.7547 50.4812C70.9387 50.4093 71.1357 50.3759 71.3333 50.3829C71.714 50.3994 72.0729 50.5638 72.3327 50.8406C72.5924 51.1175 72.7322 51.4847 72.7218 51.8629C72.7356 52.0548 72.7103 52.2474 72.6473 52.4293C72.5844 52.6113 72.4852 52.7787 72.3555 52.9216C72.2259 53.0645 72.0685 53.18 71.8929 53.2611C71.7172 53.3421 71.5269 53.3872 71.3333 53.3935L71.2824 53.3809ZM75.1548 54.0133H78.1482V53.3303H75.9573V49.7758H75.1548V54.0133ZM81.3455 54.0133C81.5983 54.034 81.8526 53.9985 82.0899 53.9094C82.3271 53.8202 82.5414 53.6796 82.7171 53.4979C82.8928 53.3162 83.0255 53.0978 83.1055 52.8588C83.1855 52.6197 83.2109 52.3659 83.1798 52.1159V49.7125H82.4282V52.1539C82.4282 52.9255 82.0206 53.3303 81.3582 53.3303C80.6958 53.3303 80.2755 52.9002 80.2755 52.0653V49.6619H79.5239V52.1033C79.4945 52.3501 79.5209 52.6004 79.6012 52.8358C79.6816 53.0713 79.8139 53.2859 79.9884 53.4641C80.163 53.6423 80.3754 53.7795 80.6102 53.8658C80.845 53.9521 81.0962 53.9852 81.3455 53.9627V54.0133ZM86.7082 54.9368L87.1031 54.0133C87.4077 54.0038 87.7071 53.9327 87.983 53.8044C88.259 53.676 88.5057 53.4932 88.7081 53.267L88.2241 52.7863C88.0639 52.963 87.8671 53.1032 87.6472 53.1971C87.4273 53.291 87.1895 53.3364 86.9502 53.3303C86.5843 53.2982 86.2445 53.1283 86.0006 52.8555C85.7567 52.5827 85.627 52.2276 85.6382 51.8629C85.6297 51.6721 85.6597 51.4815 85.7267 51.3023C85.7936 51.1232 85.896 50.9592 86.0278 50.8201C86.1596 50.6809 86.3181 50.5694 86.4941 50.4922C86.67 50.4149 86.8598 50.3735 87.0521 50.3703C87.2771 50.3761 87.4988 50.426 87.7043 50.5172C87.9098 50.6083 88.0951 50.739 88.2495 50.9016L88.7208 50.345C88.5033 50.1271 88.2428 49.9562 87.9557 49.843C87.6685 49.7298 87.3609 49.6768 87.0521 49.6872C86.763 49.6821 86.4758 49.7348 86.2076 49.8423C85.9395 49.9499 85.6959 50.1099 85.4914 50.313C85.2869 50.5161 85.1257 50.758 85.0174 51.0243C84.9091 51.2906 84.856 51.5758 84.8612 51.8629C84.8407 52.3751 85.0073 52.8774 85.3303 53.2773C85.6534 53.6771 86.1111 53.9475 86.619 54.0386L86.1477 54.7344L86.7846 55L86.7082 54.9368ZM92.313 54.0133C92.6064 54.027 92.8996 53.9816 93.1749 53.8798C93.4502 53.778 93.7019 53.622 93.9149 53.4211C94.1279 53.2202 94.2978 52.9786 94.4144 52.7108C94.5309 52.4431 94.5917 52.1546 94.5931 51.8629C94.5506 51.3064 94.298 50.7863 93.8859 50.4068C93.4737 50.0273 92.9324 49.8165 92.3703 49.8165C91.8082 49.8165 91.2669 50.0273 90.8547 50.4068C90.4426 50.7863 90.19 51.3064 90.1475 51.8629C90.1422 52.1522 90.1961 52.4396 90.3059 52.7076C90.4158 52.9756 90.5793 53.2187 90.7865 53.4222C90.9937 53.6256 91.2404 53.7851 91.5115 53.8911C91.7827 53.997 92.0727 54.0472 92.3639 54.0386L92.313 54.0133ZM92.313 53.3303C91.9357 53.3107 91.5805 53.1471 91.3218 52.8737C91.0631 52.6003 90.9207 52.2381 90.9245 51.8629C90.9159 51.67 90.9468 51.4773 91.0153 51.2965C91.0837 51.1157 91.1884 50.9506 91.3229 50.8111C91.4574 50.6715 91.6191 50.5606 91.798 50.4848C91.9769 50.4091 92.1694 50.3701 92.3639 50.3703C92.5585 50.3719 92.7508 50.412 92.9296 50.4882C93.1083 50.5644 93.27 50.6752 93.4052 50.8142C93.5404 50.9531 93.6464 51.1174 93.7169 51.2975C93.7874 51.4776 93.8212 51.6698 93.8161 51.8629C93.8247 52.0559 93.7938 52.2486 93.7253 52.4294C93.6569 52.6102 93.5522 52.7753 93.4177 52.9148C93.2832 53.0543 93.1215 53.1653 92.9426 53.241C92.7637 53.3168 92.5712 53.3558 92.3767 53.3556L92.313 53.3303ZM91.5614 49.4216C91.6506 49.2192 91.727 49.118 91.8926 49.118C92.0582 49.118 92.4404 49.3583 92.7716 49.3583C93.1027 49.3583 93.3193 49.0927 93.4594 48.612L93.0518 48.4855C92.9626 48.6879 92.8862 48.7891 92.7206 48.7891C92.555 48.7891 92.1729 48.5488 91.8417 48.5488C91.5105 48.5488 91.2939 48.8144 91.1538 49.3077L91.5614 49.4216ZM96.3 54.0133H99.4845V53.3429H97.0388V52.2045H99.1788V51.5467H97.0388V50.4462H99.4591V49.7758H96.3V54.0133ZM102.669 54.0133C103.561 54.0133 104.198 53.5453 104.198 52.7484C104.198 52.04 103.726 51.7238 102.822 51.4834C101.918 51.2431 101.816 51.1419 101.816 50.813C101.816 50.5347 102.07 50.307 102.503 50.307C102.929 50.3213 103.337 50.4773 103.663 50.7498L104.07 50.1805C103.632 49.8269 103.081 49.6388 102.516 49.6493C102.335 49.6238 102.15 49.6375 101.974 49.6895C101.798 49.7416 101.636 49.8307 101.498 49.9508C101.36 50.0709 101.25 50.2192 101.175 50.3854C101.1 50.5517 101.062 50.7321 101.064 50.9142C101.064 51.6985 101.574 51.9641 102.478 52.1792C103.382 52.3942 103.446 52.5207 103.446 52.8243C103.446 53.1532 103.153 53.3556 102.682 53.3556C102.204 53.3366 101.75 53.1429 101.408 52.8116L100.949 53.3429C101.439 53.7784 102.075 54.0174 102.733 54.0133H102.669ZM111.407 54.0133H114.643V53.3429H112.095V52.2045H114.235V51.5467H112.095V50.4462H114.503V49.7758H111.395V54.0133H111.407ZM115.955 54.0133H116.821L117.942 52.4069L119.063 54.0133H119.942L118.388 51.8629L119.878 49.8011H119.012L117.942 51.319L116.885 49.8011H116.006L117.496 51.8629L115.917 54.0133H115.955ZM123.177 54.0133C123.504 54.0233 123.828 53.9616 124.128 53.8326C124.427 53.7035 124.694 53.5104 124.91 53.267L124.426 52.7863C124.266 52.9637 124.069 53.1043 123.849 53.1983C123.629 53.2922 123.391 53.3373 123.152 53.3303C122.777 53.3106 122.424 53.1462 122.17 52.872C121.915 52.5979 121.778 52.2357 121.789 51.8629C121.779 51.6727 121.807 51.4824 121.873 51.3033C121.938 51.1242 122.039 50.9601 122.17 50.8208C122.301 50.6814 122.459 50.5697 122.634 50.4923C122.809 50.4149 122.998 50.3734 123.19 50.3703C123.415 50.3754 123.637 50.425 123.843 50.5162C124.048 50.6074 124.233 50.7384 124.388 50.9016L124.872 50.345C124.653 50.1283 124.392 49.9582 124.106 49.8451C123.819 49.732 123.511 49.6783 123.203 49.6872C122.914 49.6821 122.626 49.7348 122.358 49.8423C122.09 49.9499 121.847 50.1099 121.642 50.313C121.438 50.5161 121.276 50.758 121.168 51.0243C121.06 51.2906 121.007 51.5758 121.012 51.8629C121.005 52.1484 121.056 52.4323 121.162 52.6977C121.268 52.963 121.427 53.2045 121.629 53.4076C121.831 53.6106 122.073 53.7712 122.339 53.8796C122.605 53.988 122.89 54.0421 123.177 54.0386V54.0133ZM126.489 54.0133H129.483V53.3303H127.228V49.7758H126.477V54.0133H126.489ZM132.667 54.0133C132.921 54.0365 133.176 54.0026 133.414 53.9143C133.653 53.8259 133.868 53.6854 134.044 53.5031C134.221 53.3208 134.353 53.1015 134.432 52.8613C134.511 52.6212 134.535 52.3664 134.502 52.1159V49.7125H133.75V52.1539C133.75 52.9255 133.342 53.3303 132.68 53.3303C132.018 53.3303 131.61 52.9002 131.61 52.0653V49.6619H130.858V52.1033C130.827 52.3494 130.851 52.5995 130.93 52.835C131.009 53.0705 131.14 53.2855 131.314 53.464C131.487 53.6425 131.699 53.7799 131.933 53.8663C132.168 53.9526 132.418 53.9856 132.667 53.9627V54.0133ZM137.763 54.0133C138.654 54.0133 139.291 53.5453 139.291 52.7484C139.291 52.04 138.82 51.7238 137.915 51.4834C137.011 51.2431 136.909 51.1419 136.909 50.813C136.909 50.5347 137.164 50.307 137.597 50.307C138.022 50.3213 138.431 50.4773 138.756 50.7498L139.164 50.1805C138.725 49.8269 138.175 49.6388 137.61 49.6493C137.428 49.6238 137.243 49.6375 137.067 49.6895C136.892 49.7416 136.729 49.8307 136.591 49.9508C136.453 50.0709 136.343 50.2192 136.268 50.3854C136.194 50.5517 136.156 50.7321 136.158 50.9142C136.158 51.6985 136.667 51.9641 137.571 52.1792C138.476 52.3942 138.54 52.5207 138.54 52.8243C138.54 53.1532 138.247 53.3556 137.788 53.3556C137.284 53.3558 136.799 53.1606 136.438 52.8116L135.992 53.3429C136.473 53.7842 137.107 54.0243 137.763 54.0133ZM140.998 54.0133H141.75V49.7758H140.998V54.0133ZM145.087 54.0133H145.749L147.52 49.7505H146.705L145.431 53.0014L144.157 49.7505H143.329L145.1 54.0133H145.087ZM148.068 54.0133H148.832L149.265 52.9887H151.278L151.711 54.0133H152.5L150.628 49.7505H149.94L148.068 54.0133ZM149.545 52.331L150.31 50.598L151.048 52.293L149.545 52.331ZM155.456 54.0639C156.347 54.0639 156.972 53.5959 156.972 52.799C156.972 52.0906 156.5 51.7744 155.609 51.534C154.717 51.2937 154.59 51.1925 154.59 50.8636C154.59 50.5853 154.844 50.3576 155.29 50.3576C155.715 50.3739 156.123 50.5296 156.449 50.8004L156.844 50.2311C156.436 49.904 155.929 49.7215 155.405 49.7125C155.223 49.687 155.038 49.7007 154.862 49.7528C154.687 49.8048 154.524 49.894 154.386 50.0141C154.248 50.1342 154.138 50.2824 154.063 50.4487C153.989 50.615 153.951 50.7953 153.953 50.9775C153.953 51.7617 154.462 52.0274 155.367 52.2424C156.271 52.4575 156.322 52.5839 156.322 52.8875C156.322 53.2164 156.042 53.4188 155.57 53.4188C155.093 53.3999 154.639 53.2061 154.297 52.8749L153.838 53.4062C154.327 53.8438 154.963 54.0831 155.621 54.0766L155.456 54.0639ZM164.194 54.0639H167.379V53.3935H164.946V52.2551H167.086V51.5973H164.946V50.4968H167.353V49.8264H164.194V54.0133V54.0639ZM169.06 54.0639H169.799V50.9901L171.073 52.9634L172.346 50.9775V54.0133H173.238V49.7758H172.436L171.162 51.7744L169.888 49.7758H169.085V54.0133L169.06 54.0639ZM180.69 54.0639H183.874V53.3935H181.429V52.2551H183.569V51.5973H181.429V50.4968H183.849V49.8264H180.69V54.0133V54.0639ZM185.556 54.0639H186.295V51.0028L188.638 54.0133H189.263V49.7758H188.524V52.6978L186.231 49.7758H185.543V54.0133L185.556 54.0639ZM191.148 54.0639H194.345V53.3935H191.899V52.2551H194.039V51.5973H191.899V50.4968H194.307V49.8264H191.148V54.0133V54.0639ZM196.027 54.0639H196.765V52.5333H197.708L198.753 54.0133H199.644L198.485 52.4069C198.777 52.3477 199.039 52.1887 199.225 51.9576C199.411 51.7265 199.51 51.4378 199.504 51.1419C199.51 50.9721 199.482 50.8028 199.42 50.6441C199.359 50.4855 199.266 50.3407 199.147 50.2185C198.975 50.0665 198.773 49.951 198.554 49.8793C198.335 49.8075 198.103 49.7809 197.874 49.8011H195.976V54.0133L196.027 54.0639ZM196.804 51.8629V50.4588H197.899C198.46 50.4588 198.778 50.6992 198.778 51.1546C198.778 51.5846 198.447 51.8629 197.912 51.8629H196.804ZM203.275 54.0639C203.929 54.0622 204.561 53.829 205.058 53.4062V51.6352H203.236V52.2804H204.332V53.1279C204.033 53.3451 203.671 53.4604 203.3 53.4568C203.102 53.4608 202.905 53.4237 202.721 53.3478C202.538 53.2719 202.373 53.1589 202.237 53.0161C202.1 52.8732 201.995 52.7037 201.928 52.5182C201.861 52.3327 201.834 52.1354 201.848 51.9388C201.839 51.75 201.869 51.5615 201.934 51.384C201.999 51.2065 202.099 51.0436 202.228 50.9048C202.358 50.766 202.513 50.654 202.686 50.5753C202.859 50.4966 203.046 50.4527 203.236 50.4462C203.676 50.4369 204.102 50.6006 204.421 50.9016L204.905 50.345C204.453 49.9483 203.865 49.7399 203.262 49.7631C202.691 49.7562 202.139 49.9725 201.727 50.3652C201.315 50.758 201.075 51.2959 201.058 51.8629C201.047 52.1537 201.097 52.4436 201.205 52.7142C201.313 52.9848 201.476 53.2301 201.685 53.4347C201.893 53.6393 202.142 53.7986 202.416 53.9026C202.689 54.0065 202.982 54.0529 203.275 54.0386V54.0639ZM206.854 54.0639H207.631V49.7758H206.879V54.0133L206.854 54.0639ZM209.172 54.0639H209.937L210.382 53.0393H212.395L212.828 54.0639H213.618L211.745 49.8011H211.045L209.172 54.0639ZM210.65 52.3816L211.376 50.6865L212.115 52.3816H210.65Z" fill="#524D48"/>
</g>
<defs>
<clipPath id="clip0">
<rect width="214" height="55" fill="white"/>
</clipPath>
</defs>
</svg>
