<svg width="26" height="50" viewBox="0 0 26 50" fill="none" xmlns="http://www.w3.org/2000/svg">
<path d="M15.572 38.155H10.035C5.065 38.155 1 34.09 1 29.121V10.034C1 5.065 5.066 1 10.035 1H15.571C20.541 1 24.606 5.065 24.606 10.034V29.121C24.606 34.09 20.54 38.155 15.571 38.155H15.572Z" stroke="#D1D8E3" stroke-width="2" stroke-miterlimit="10" stroke-linecap="round" stroke-linejoin="round"/>
<path d="M12.887 31.7581H12.719C12.181 31.7567 11.6655 31.5424 11.2851 31.162C10.9046 30.7816 10.6903 30.266 10.689 29.7281V23.6831C10.689 22.5671 11.603 21.6541 12.719 21.6541H12.887C14.003 21.6541 14.917 22.5671 14.917 23.6841V29.7301C14.917 30.8461 14.003 31.7601 12.887 31.7601V31.7581Z" stroke="#D1D8E3" stroke-width="2" stroke-miterlimit="10" stroke-linecap="round" stroke-linejoin="round"/>
<path d="M18.073 43.67L12.857 48.886" stroke="#D1D8E3" stroke-width="2" stroke-miterlimit="10" stroke-linecap="round" stroke-linejoin="round"/>
<path d="M7.599 43.67L12.815 48.886" stroke="#D1D8E3" stroke-width="2" stroke-miterlimit="10" stroke-linecap="round" stroke-linejoin="round"/>
</svg>
